<?xml version="1.0" encoding="UTF-8" standalone="no"?>
<!-- Created with Inkscape (http://www.inkscape.org/) -->

<svg
   width="100mm"
   height="100mm"
   viewBox="0 0 100 100"
   version="1.1"
   id="svg1"
   inkscape:version="1.3.2 (091e20e, 2023-11-25, custom)"
   sodipodi:docname="cps-logo.svg"
   inkscape:export-filename="cps-logo-2.png"
   inkscape:export-xdpi="300"
   inkscape:export-ydpi="300"
   xmlns:inkscape="http://www.inkscape.org/namespaces/inkscape"
   xmlns:sodipodi="http://sodipodi.sourceforge.net/DTD/sodipodi-0.dtd"
   xmlns="http://www.w3.org/2000/svg"
   xmlns:svg="http://www.w3.org/2000/svg">
  <sodipodi:namedview
     id="namedview1"
     pagecolor="#ffffff"
     bordercolor="#000000"
     borderopacity="0.25"
     inkscape:showpageshadow="2"
     inkscape:pageopacity="0.0"
     inkscape:pagecheckerboard="0"
     inkscape:deskcolor="#d1d1d1"
     inkscape:document-units="mm"
     inkscape:zoom="1.4142136"
     inkscape:cx="255.6191"
     inkscape:cy="280.36784"
     inkscape:window-width="1920"
     inkscape:window-height="1001"
     inkscape:window-x="-9"
     inkscape:window-y="-9"
     inkscape:window-maximized="1"
     inkscape:current-layer="layer1"
     showguides="false"
     inkscape:export-bgcolor="#ffffff00">
    <sodipodi:guide
       position="39.247775,31.879289"
       orientation="1,0"
       id="guide7"
       inkscape:locked="false" />
    <sodipodi:guide
       position="120.00762,13.387549"
       orientation="1,0"
       id="guide8"
       inkscape:locked="false" />
  </sodipodi:namedview>
  <defs
     id="defs1">
    <rect
       x="139.78009"
       y="380.82941"
       width="464.98273"
       height="286.6918"
       id="rect3" />
    <rect
       x="209.67014"
       y="403.65067"
       width="352.30286"
       height="278.13385"
       id="rect2" />
    <filter
       inkscape:label="Tinted Rainbow"
       inkscape:menu="Textures"
       inkscape:menu-tooltip="Smooth rainbow colors melted along the edges and colorizable"
       style="color-interpolation-filters:sRGB"
       id="filter10"
       x="-0.16126673"
       y="-0.18543857"
       width="1.3225335"
       height="1.3708771">
      <feColorMatrix
         in="SourceGraphic"
         type="luminanceToAlpha"
         result="result2"
         id="feColorMatrix9" />
      <feSpecularLighting
         result="result10"
         specularExponent="15"
         surfaceScale="-15"
         specularConstant="1"
         id="feSpecularLighting9">
        <feDistantLight
           azimuth="225"
           elevation="25"
           id="feDistantLight9" />
      </feSpecularLighting>
      <feComposite
         in2="SourceGraphic"
         k3="1"
         k2="1"
         operator="arithmetic"
         result="result9"
         in="result10"
         id="feComposite9"
         k1="0"
         k4="0" />
      <feComposite
         in="result9"
         operator="in"
         result="fbSourceGraphic"
         in2="SourceGraphic"
         id="feComposite10" />
      <feColorMatrix
         result="fbSourceGraphicAlpha"
         in="fbSourceGraphic"
         values="0 0 0 -1 0 0 0 0 -1 0 0 0 0 -1 0 0 0 0 1 0"
         id="feColorMatrix17" />
      <feGaussianBlur
         id="feGaussianBlur17"
         result="result8"
         stdDeviation="5"
         in="fbSourceGraphic" />
      <feTurbulence
         id="feTurbulence17"
         baseFrequency="0.015"
         numOctaves="2"
         type="fractalNoise"
         result="result7"
         seed="20" />
      <feComposite
         id="feComposite17"
         in="fbSourceGraphic"
         operator="in"
         result="result6"
         in2="result8" />
      <feComposite
         id="feComposite18"
         in="result6"
         operator="arithmetic"
         result="result2"
         in2="result7"
         k3="1.7"
         k1="0"
         k2="0"
         k4="0" />
      <feComposite
         id="feComposite19"
         in2="result6"
         operator="in"
         in="result2"
         result="fbSourceGraphic" />
      <feComposite
         id="feComposite20"
         in2="fbSourceGraphic"
         in="fbSourceGraphic"
         k3="0.3"
         k2="1.5"
         operator="arithmetic"
         result="result9"
         k1="0"
         k4="0" />
    </filter>
  </defs>
  <g
     inkscape:label="Layer 1"
     inkscape:groupmode="layer"
     id="layer1">
    <rect
       style="fill:#ffffff;stroke:#ffffff;stroke-width:0.264583"
       id="rect29"
       width="99.718262"
       height="99.718262"
       x="0.37417734"
       y="0.18708867" />
    <text
       xml:space="preserve"
       transform="scale(0.26458333)"
       id="text2"
       style="font-style:normal;font-variant:normal;font-weight:300;font-stretch:normal;font-size:192px;font-family:'Asgard Trial';-inkscape-font-specification:'Asgard Trial, Light';font-variant-ligatures:normal;font-variant-caps:normal;font-variant-numeric:normal;font-variant-east-asian:normal;white-space:pre;shape-inside:url(#rect2);display:inline;fill:none;stroke:#000000" />
    <path
       id="text3"
       style="font-style:normal;font-variant:normal;font-weight:300;font-stretch:normal;font-size:192px;font-family:'Asgard Trial';-inkscape-font-specification:'Asgard Trial, Light';font-variant-ligatures:normal;font-variant-caps:normal;font-variant-numeric:normal;font-variant-east-asian:normal;white-space:pre;shape-inside:url(#rect3);display:inline;fill:#000080;stroke:#000080;stroke-width:0.264583"
       d="m 25.033486,31.445865 c -2.4384,0 -4.690829,0.45709 -6.756693,1.37149 -2.032,0.88054 -3.792752,2.11657 -5.282883,3.7083 -1.490133,1.59173 -2.658546,3.42063 -3.5052133,5.48649 -0.8128,2.032 -1.219562,4.21629 -1.219562,6.55309 0,2.20133 0.389469,4.28445 1.168402,6.24871 0.8128003,1.9304 1.9476623,3.6576 3.4039283,5.1816 1.490131,1.49013 3.250883,2.67532 5.28288,3.55585 2.032,0.84667 4.267137,1.27021 6.705534,1.27021 2.302933,0 4.318428,-0.1866 6.045626,-0.55914 1.7272,-0.37253 3.267792,-0.93132 4.622458,-1.67638 0.169334,-0.16933 0.355939,-0.57558 0.559139,-1.21905 0.2032,-0.64346 0.389289,-1.37156 0.558623,-2.18436 0.169333,-0.84667 0.304575,-1.62561 0.406175,-2.33681 0.135467,-0.7112 0.203605,-1.18558 0.203605,-1.42265 -0.474131,-0.33867 -0.999363,-0.47391 -1.575097,-0.40618 -0.169333,0.8128 -0.47389,1.76106 -0.914156,2.84479 -0.440267,1.08373 -1.151589,2.06606 -2.133719,2.94659 -0.7112,0.64346 -1.608611,1.20225 -2.692342,1.67638 -1.049867,0.47414 -2.33675,0.71107 -3.860747,0.71107 -2.167464,0 -4.063976,-0.44032 -5.689576,-1.32085 -1.591731,-0.9144 -2.929459,-2.11688 -4.013192,-3.60701 -1.049864,-1.524 -1.846101,-3.21713 -2.387968,-5.0798 -0.508,-1.86266 -0.761709,-3.75917 -0.761709,-5.68957 0,-1.7272 0.271002,-3.43762 0.812869,-5.13095 0.575733,-1.7272 1.388229,-3.28509 2.438096,-4.67362 1.08373,-1.4224 2.370613,-2.53997 3.860744,-3.35277 1.490133,-0.84667 3.149711,-1.26969 4.978508,-1.26969 2.065864,0 3.725442,0.30456 4.978509,0.91416 1.253064,0.57573 2.20132,1.28705 2.844787,2.13372 0.677333,0.84666 1.134424,1.65967 1.371491,2.43861 0.270933,0.77893 0.440248,1.35449 0.507982,1.72703 0.16933,0.10159 0.372713,0.15244 0.609779,0.15244 0.270934,0 0.524645,-0.0676 0.761712,-0.20309 0.237067,-0.13546 0.338757,-0.27122 0.30489,-0.40669 0,-0.13547 -0.06762,-0.57579 -0.203089,-1.32085 -0.1016,-0.77894 -0.220067,-1.6255 -0.355534,-2.5399 -0.135466,-0.94826 -0.271227,-1.76128 -0.406691,-2.43861 l -0.151929,-1.0666 c -1.8288,-0.4064 -3.640912,-0.6774 -5.435846,-0.81287 -1.761064,-0.13547 -3.454193,-0.20309 -5.079791,-0.20309 z m 54.935664,0.0506 c -1.65947,0 -3.234126,0.35592 -4.724256,1.06712 -1.490132,0.7112 -2.709392,1.72708 -3.657662,3.04788 -0.9144,1.28693 -1.37149,2.81075 -1.37149,4.57181 0,1.65947 0.45709,3.09889 1.37149,4.31808 0.9144,1.2192 2.03197,2.28593 3.352772,3.20033 1.35466,0.88053 2.658836,1.69354 3.911896,2.43861 1.15147,0.64346 2.21819,1.25309 3.20032,1.82883 1.016,0.57573 1.8285,1.25298 2.4381,2.03191 0.64347,0.77894 0.96532,1.86243 0.96532,3.25097 0,1.9304 -0.59286,3.43744 -1.77819,4.52117 -1.18533,1.04987 -2.57339,1.5751 -4.16512,1.5751 -1.49013,0 -2.743456,-0.28778 -3.759456,-0.86352 -0.98214,-0.60959 -1.795152,-1.35499 -2.438612,-2.23552 -0.6096,-0.88053 -1.08347,-1.7271 -1.42214,-2.5399 -0.3048,-0.84666 -0.50818,-1.50714 -0.60978,-1.98127 -0.0677,-0.3048 -0.25382,-0.45682 -0.55862,-0.45682 -0.23707,0 -0.474,0.0676 -0.71107,0.20309 -0.2032,0.1016 -0.3898,0.23684 -0.55914,0.40618 0,0.20319 0.0341,0.72843 0.1018,1.57509 0.1016,0.84667 0.22007,1.82848 0.35554,2.94608 0.16933,1.11759 0.35542,2.16754 0.55862,3.14967 1.2192,0.23707 2.591,0.54215 4.114992,0.91468 1.55787,0.37253 3.166596,0.55862 4.826066,0.55862 1.76106,0 3.42064,-0.3727 4.9785,-1.11776 1.59174,-0.77893 2.87862,-1.84566 3.86075,-3.20032 1.016,-1.38853 1.52394,-2.97997 1.52394,-4.77491 0,-1.21919 -0.28778,-2.30321 -0.86351,-3.25148 -0.57574,-0.98213 -1.32113,-1.84547 -2.23553,-2.59053 -0.9144,-0.74507 -1.86265,-1.42284 -2.84479,-2.03244 -0.98213,-0.6096 -1.87954,-1.16838 -2.69234,-1.67638 -1.08373,-0.7112 -2.16723,-1.40523 -3.25096,-2.08256 -1.049866,-0.67734 -1.930496,-1.45628 -2.641696,-2.33681 -0.67733,-0.88053 -1.01596,-1.98133 -1.01596,-3.30213 0,-0.81279 0.16931,-1.64258 0.50798,-2.48925 0.33867,-0.84667 0.89745,-1.55799 1.67638,-2.13372 0.77893,-0.57573 1.845656,-0.86351 3.200316,-0.86351 1.04987,0 1.98135,0.25423 2.79415,0.76222 0.84666,0.47414 1.55799,1.08377 2.13372,1.82883 0.6096,0.74507 1.08347,1.52401 1.42213,2.33681 0.33867,0.8128 0.54205,1.52412 0.60978,2.13372 0.13547,0.13547 0.32156,0.20309 0.55863,0.20309 0.16933,0 0.38949,-0.0341 0.66042,-0.1018 0.27094,-0.1016 0.3894,-0.23685 0.35554,-0.40618 -0.0339,-0.67733 -0.11827,-1.69321 -0.25374,-3.04788 -0.1016,-1.38853 -0.25413,-2.72677 -0.45733,-4.0137 -1.08373,-0.27094 -1.99792,-0.50787 -2.74299,-0.71107 -0.7112,-0.2032 -1.42252,-0.35574 -2.13371,-0.45734 -0.67734,-0.13546 -1.5412,-0.20309 -2.59106,-0.20309 z m -38.426079,0.20309 c -0.135467,0.13547 -0.203086,0.37292 -0.203086,0.71159 0.03387,0.33866 0.101486,0.5756 0.203086,0.71106 0.2032,0 0.55912,0.0341 1.06712,0.10181 0.541864,0.0339 1.049803,0.10148 1.523936,0.20308 0.508,0.1016 0.779005,0.25414 0.812872,0.45734 0.135466,0.4064 0.203089,0.94789 0.203089,1.62523 0.03387,0.64346 0.05064,1.33801 0.05064,2.08307 v 21.18372 c 0,0.74507 -0.01678,1.4391 -0.05064,2.08256 0,0.64347 -0.06762,1.16819 -0.203089,1.57458 -0.03387,0.16934 -0.304872,0.32187 -0.812872,0.45734 -0.474133,0.13547 -0.982072,0.23716 -1.523936,0.30489 -0.508,0.0339 -0.86392,0.0506 -1.06712,0.0506 -0.1016,0.13547 -0.16922,0.37292 -0.203086,0.71159 0,0.33866 0.06762,0.5756 0.203086,0.71107 1.016,-0.0677 1.998326,-0.11858 2.94659,-0.15245 0.982134,-0.0677 1.947167,-0.1018 2.895431,-0.1018 0.982133,0 1.93039,0.0341 2.84479,0.1018 0.94826,0.0339 1.93059,0.0847 2.94659,0.15245 0.13546,-0.13547 0.18631,-0.37241 0.15244,-0.71107 0,-0.33867 -0.0508,-0.57612 -0.15244,-0.71159 -0.2032,0 -0.5759,-0.0168 -1.11776,-0.0506 -0.508,-0.0677 -0.99865,-0.16942 -1.47278,-0.30489 -0.47413,-0.13547 -0.74514,-0.288 -0.81287,-0.45734 -0.13547,-0.40639 -0.22038,-0.93111 -0.25425,-1.57458 v -2.08256 -21.13307 -2.18437 c 0.0339,-0.74506 0.11878,-1.26978 0.25425,-1.57458 0.1016,-0.23706 0.457,-0.37282 1.0666,-0.40669 0.64347,-0.0339 1.11785,-0.0506 1.42265,-0.0506 2.7432,0 4.79173,0.74488 6.1464,2.23501 1.35466,1.49013 2.03243,3.47156 2.03243,5.94382 0,2.47227 -0.67777,4.38556 -2.03243,5.74022 -1.35467,1.3208 -3.03102,1.98128 -5.02915,1.98128 -0.37254,0 -0.71116,-0.0341 -1.01596,-0.10181 -0.3048,-0.1016 -0.59258,-0.18599 -0.86351,-0.25373 -0.16934,-0.0339 -0.25374,0.0505 -0.25374,0.25373 0,0.3048 0.10118,0.55903 0.30438,0.76223 0.2032,0.16933 0.33896,0.2878 0.40669,0.35554 0.27093,0.13546 0.62634,0.23715 1.0666,0.30489 0.44027,0.0677 0.79619,0.10128 1.06712,0.10128 2.16747,0 4.06398,-0.40625 5.68958,-1.21904 1.65946,-0.84667 2.94634,-2.01509 3.86074,-3.50522 0.9144,-1.524 1.37149,-3.28475 1.37149,-5.28288 0,-1.9304 -0.52471,-3.55642 -1.57458,-4.87722 -1.016,-1.3208 -2.33695,-2.3199 -3.96254,-2.99723 -1.59174,-0.7112 -3.26809,-1.06661 -5.02915,-1.06661 -1.45627,0 -2.76045,0.0168 -3.91191,0.0506 -1.1176,0.0339 -2.167547,0.0512 -3.14968,0.0512 -0.948264,0 -1.913297,-0.0173 -2.895431,-0.0512 -0.948264,-0.0677 -1.93059,-0.11858 -2.94659,-0.15245 z" />
  </g>
</svg>
